# xmcd
#
# Track frame offsets:
#  150
#  13100
#  27743
#  39829
#  53845
#  66356
#  80442
#  95329
#  108808
#  123590
#
# Disc length: 1853 seconds
#
# Revision: 0
# Processed by: cddbd v1.5.1PL0 Copyright (c) Steve Scherf et al.
# Submitted via: Collectorz.com_Music_Collector 6.9
#
DISCID=7d073b0a
DTITLE=Ford, Tennessee Ernie - For The 83rd Time
DYEAR=1900
DGENRE=Country
TTITLE0=I Been To Georgia On A Fast Train
TTITLE1=Cowboy 
TTITLE2=Daddy Wats A Tree
TTITLE3=I've Been There Too
TTITLE4=Ain't Goin' Down In The Ground Before My Time
TTITLE5=Sweet Feelin's 
TTITLE6=The Dogs And Sheriff John
TTITLE7=I've Been Through The Mill
TTITLE8=Good Friends And Fireplaces
TTITLE9=Everybody Needs A Rainbow
EXTD=
EXTT0=
EXTT1=
EXTT2=
EXTT3=
EXTT4=
EXTT5=
EXTT6=
EXTT7=
EXTT8=
EXTT9=
PLAYORDER=
